<svg width="116" height="150" viewBox="0 0 116 150" xmlns="http://www.w3.org/2000/svg"><g fill-rule="nonzero" fill="none"><g fill="#FDFEFE"><path d="M7.82 30.652l6.647 4.435v64.435c0 9.521 5.475 18 14.077 24V84.26L54.48 66.913V45L7.82 13.696v16.956zM28.674 44.61l13.164 8.87v4.825l-13.164 8.87V44.609zM101.793 99.522V76.696l-27.37-18.392v-4.826l13.294-8.87v14.088l14.076 9.521v-33.13l6.647-4.435V13.696L61.78 45v21.783L87.717 84.13v15.522c-.13 5.218-3.91 10.957-11.86 14.348V85.304L61.78 75.783v56.087c10.296-.522 18.768-3.653 25.937-8.479 8.602-5.87 14.076-14.348 14.076-23.87z"/></g><g fill="#124734"><path d="M41.838 53.478l-13.164-8.87v22.566l13.164-8.87z"/><path d="M58.13 38.87L.782.39v34.174l7.169 4.696v60.652c0 9.391 3.91 18.26 11.339 25.304 4.301 4.305 11.079 9 15.119 11.348 11.209 6.392 23.721 13.044 23.721 13.044s12.513-6.652 23.722-13.044c4.04-2.348 10.818-7.043 15.119-11.348 7.429-7.043 11.34-15.782 11.34-25.304V39.261l7.168-4.696V.391L58.13 38.87zm-3.519 27.913L28.674 84.26v39.26c-8.732-6-14.076-14.478-14.076-24V35.088L7.82 30.652V13.696L54.48 45v21.783h.131zm53.83-36.13l-6.648 4.434v33.13l-14.206-9.521V44.609l-13.165 8.87v4.825l27.371 18.392v22.826c0 9.521-5.474 18-14.076 24-7.169 4.826-15.64 8.087-25.937 8.478V75.913l14.076 9.522v28.695c7.95-3.39 11.73-9.13 11.86-14.347V84.26L61.65 66.783V45l46.661-31.304v16.956h.13z"/><g><path d="M41.838 53.478l-13.164-8.87v22.566l13.164-8.87z"/><path d="M58.13 38.87L.782.39v34.174l7.169 4.696v60.652c0 9.391 3.91 18.26 11.339 25.304 4.301 4.305 11.079 9 15.119 11.348 11.209 6.392 23.721 13.044 23.721 13.044s12.513-6.652 23.722-13.044c4.04-2.348 10.818-7.043 15.119-11.348 7.429-7.043 11.34-15.782 11.34-25.304V39.261l7.168-4.696V.391L58.13 38.87zm-3.519 27.913L28.674 84.26v39.26c-8.732-6-14.076-14.478-14.076-24V35.088L7.82 30.652V13.696L54.48 45v21.783h.131zm53.83-36.13l-6.648 4.434v33.13l-14.206-9.521V44.609l-13.165 8.87v4.825l27.371 18.392v22.826c0 9.521-5.474 18-14.076 24-7.169 4.826-15.64 8.087-25.937 8.478V75.913l14.076 9.522v28.695c7.95-3.39 11.73-9.13 11.86-14.347V84.26L61.65 66.783V45l46.661-31.304v16.956h.13z"/></g></g></g></svg>